<svg xmlns="http://www.w3.org/2000/svg" width="80" height="50.7">
  <path fill="#e6e6e6" d="M71.2 3.7a2.5 2.5 0 0 0-.2 0 8.8 8.8 0 0 0-7.3 4.2 2.5 2.5 0 0 0 .8 3.3 2.5 2.5 0 0 0 3.4-.8c.5-.8 1.4-1.7 3.2-1.8 2.5 0 3.8 2.1 3.9 4.4a4 4 0 0 1-1 2.8c-.6.8-1.7 1.4-3.6 1.4H2.8a2.5 2.5 0 0 0-2.4 2.5A2.5 2.5 0 0 0 2.8 22h67.6c3 0 5.6-1.2 7.3-3a9 9 0 0 0 2.2-6.3c-.1-4.4-3.5-9-8.7-9.1ZM3 28.3a2.5 2.5 0 0 0-2.5 2.4 2.5 2.5 0 0 0 2.4 2.5h49.3c2 0 3.4.6 4.3 1.1.8.6 1.1 1 1 2.3 0 .7-.3 2.4-1.3 3.2-1 .8-2.7 1.5-7.2-.2a2.5 2.5 0 0 0-3.2 1.4 2.5 2.5 0 0 0 1.4 3.2c5.5 2 9.7 1.4 12.2-.7a9 9 0 0 0 3-6.8c.1-2.7-1.2-5-3.1-6.4-2-1.3-4.4-1.9-7-2z" color="#000"/>
</svg>
